<svg version="1.0" xmlns="http://www.w3.org/2000/svg" width="65.333" height="66.667" viewBox="0 0 49 49"><g fill="#D41443"><path d="M19 .9C7.5 4.4.6 13.5.6 25c0 9.4 4.8 17.6 12.7 21.7 4.1 2.1 4.7.6.9-2.3-2.7-2.2-3.2-3.2-3.2-6.9 0-2.6-.6-4.7-1.5-5.5-1.8-1.5-2-5.4-.2-6.8.7-.6 1.4-2.6 1.5-4.4C11.3 14.2 18.4 8 25.5 8s14.2 6.2 14.7 12.8c.1 1.8.8 3.8 1.5 4.4 1.8 1.4 1.6 5.3-.2 6.8-.9.8-1.5 2.9-1.5 5.5 0 3.7-.5 4.7-3.2 6.9-4.2 3.3-3 4.5 1.7 1.6C45.1 41.9 50 33 50 25.1 50 9.3 33.6-3.5 19 .9z"/><path d="M20.3 12.5c-1.8.8-3.3 1.8-3.3 2.4 0 1.1 5.4 3.1 8.5 3.1 3.1 0 8.5-2 8.5-3.1 0-1.2-6.2-3.9-8.7-3.9-1 .1-3.3.7-5 1.5zM14.6 18.7c-.3.4-.6 1.7-.6 3 0 2.3.1 2.3 11.5 2.3S37 24 37 21.7c0-3.4-.9-3.8-4.1-2.2-3.6 1.9-11.2 1.9-14.8 0-1.6-.8-3.1-1.1-3.5-.8zM11.7 27.6c-1.6 1.7 1.1 2.4 8.9 2.4H29v3.5c0 1.9.5 3.5 1 3.5.6 0 1-1.5 1-3.4 0-3.3.2-3.5 4-3.8 2.2-.2 4-.8 4-1.3 0-1.1-26.2-2-27.3-.9z"/><path d="M14 36.4c0 5.5 1.9 6.6 11.5 6.6S37 41.9 37 36.4c0-2.4-.5-3.4-1.5-3.4-.9 0-1.5.9-1.5 2.4 0 5.6-7.6 6.1-8.7.6-.5-2.9-.8-3-5.9-3H14v3.4zM20.2 47.7c.6 3.2 10.8 2.9 10.8-.2 0-1.1-1.3-1.5-5.6-1.5-4.7 0-5.5.3-5.2 1.7z"/></g></svg>