<svg aria-hidden="true" style="position:absolute;width:0;height:0" xmlns="http://www.w3.org/2000/svg" overflow="hidden"><defs><symbol id="icon-facebookk" viewBox="0 0 16 32"><path d="M14.143 15.972h-4.034v14.865H3.997V15.972H1.09v-5.224h2.907V7.367c0-2.418 1.142-6.203 6.166-6.203l4.527.019v5.071h-3.285c-.539 0-1.296.271-1.296 1.424v3.075h4.567l-.534 5.219z" fill="var(--color1, --light-text-color)"/></symbol><symbol id="icon-githubb" viewBox="0 0 32 32"><path d="M16 0C7.212 0 0 7.212 0 16c0 7.499 5.262 14.312 12.25 16v-5.293c-.692.152-1.33.156-2.034-.052-.946-.279-1.714-.909-2.284-1.869-.364-.613-1.008-1.278-1.68-1.23l-.165-1.868c1.453-.124 2.711.886 3.457 2.14.332.558.713.884 1.203 1.029.473.14.982.072 1.574-.137.149-1.186.692-1.63 1.102-2.255v-.001c-4.167-.622-5.828-2.832-6.488-4.578-.874-2.317-.405-5.212 1.14-7.041.03-.036.084-.129.063-.194-.708-2.139.155-3.909.187-4.097.817.242.95-.243 3.551 1.337l.449.27c.188.112.129.048.317.034A13.544 13.544 0 0116 7.723c1.136.015 2.273.178 3.404.484l.145.015c-.013-.002.04-.009.127-.062 3.248-1.968 3.132-1.324 4.003-1.608.032.188.883 1.987.182 4.099-.095.291 2.816 2.956 1.203 7.235-.659 1.746-2.32 3.957-6.487 4.578v.001c.534.814 1.176 1.247 1.173 2.927V32C26.738 30.312 32 23.499 32 16c0-8.788-7.212-16-16-16z" fill="var(--color1, --light-text-color)"/></symbol><symbol id="icon-telegramm-1" viewBox="0 0 44 32"><path d="M17.343 21.048l-.675 8.86c.966 0 1.384-.387 1.885-.852l4.527-4.038 9.381 6.412c1.72.895 2.933.424 3.397-1.477l6.159-26.93c.546-2.374-.92-3.302-2.596-2.72L3.227 13.236c-2.47.895-2.433 2.18-.42 2.762l9.253 2.686L33.554 6.132c1.012-.625 1.931-.279 1.175.346l-17.386 14.57z" fill="var(--color1, --light-text-color)"/></symbol><symbol id="icon-circle" viewBox="0 0 32 32"><path d="M32 16c0 8.837-7.163 16-16 16S0 24.837 0 16 7.163 0 16 0s16 7.163 16 16z"/></symbol><symbol id="icon-facebook" viewBox="0 0 32 32"><path d="M16 32c8.837 0 16-7.163 16-16S24.837 0 16 0 0 7.163 0 16s7.163 16 16 16z"/><path d="M20.446 15.982h-2.61v9.619h-3.955v-9.619H12v-3.38h1.881v-2.187c0-1.564.739-4.014 3.99-4.014l2.929.012v3.281h-2.125c-.349 0-.839.175-.839.921v1.989h2.955l-.346 3.377z"/></symbol><symbol id="icon-github" viewBox="0 0 32 32"><path d="M32 16c0 8.837-7.163 16-16 16S0 24.837 0 16 7.163 0 16 0s16 7.163 16 16z"/><path d="M16 6.588c-5.169 0-9.412 4.242-9.412 9.412 0 4.411 3.095 8.419 7.206 9.412v-3.114a2.307 2.307 0 01-1.197-.03c-.556-.164-1.008-.535-1.344-1.1-.214-.361-.593-.752-.988-.723l-.097-1.099c.855-.073 1.595.521 2.034 1.259.195.328.419.52.708.605.278.082.578.043.926-.08.088-.698.407-.959.648-1.326v-.001c-2.451-.366-3.428-1.666-3.816-2.693-.514-1.363-.238-3.066.671-4.142.018-.021.05-.076.037-.114-.417-1.258.091-2.299.11-2.41.481.142.559-.143 2.089.786l.264.159c.111.066.076.028.186.02A8.031 8.031 0 0116 11.131a8.016 8.016 0 012.002.285l.086.009c-.007-.001.023-.005.075-.036 1.911-1.157 1.842-.779 2.355-.946.019.111.519 1.169.107 2.411-.056.171 1.657 1.739.708 4.256-.388 1.027-1.365 2.328-3.816 2.693v.001c.314.479.692.734.69 1.722v3.887c4.111-.993 7.206-5 7.206-9.412 0-5.169-4.242-9.412-9.412-9.412z"/></symbol><symbol id="icon-home" viewBox="0 0 32 32"><path d="M31.618 15.643c.553-.608.5-1.541-.119-2.082L17.863 1.63c-.619-.541-1.611-.53-2.217.026L1.964 14.198a1.446 1.446 0 00-.066 2.079l.343.357c.569.592 1.489.663 2.053.157l1.023-.916v13.406c0 .823.666 1.488 1.488 1.488h5.333c.822 0 1.488-.666 1.488-1.488v-9.379h6.803v9.379c-.012.822.576 1.488 1.398 1.488h5.652c.822 0 1.488-.666 1.488-1.488V16.064l.631.554c.349.307 1.078.061 1.631-.548l.388-.426z"/></symbol><symbol id="icon-telegram" viewBox="0 0 32 32"><path d="M32 16c0 8.837-7.163 16-16 16S0 24.837 0 16 7.163 0 16 0s16 7.163 16 16z"/><path d="M12.867 18.375l-.318 4.169c.454 0 .651-.182.887-.401l2.13-1.9 4.415 3.017c.81.421 1.38.199 1.598-.695l2.898-12.673c.257-1.117-.433-1.554-1.222-1.28L6.223 14.698c-1.162.421-1.145 1.026-.198 1.3l4.354 1.264 10.115-5.907c.476-.294.909-.131.553.163l-8.182 6.857z"/></symbol><symbol id="icon-arrow-right" viewBox="0 0 32 32"><path d="M19.414 27.414l10-10a2 2 0 000-2.828l-10-10a2 2 0 10-2.828 2.828L23.172 14H4a2 2 0 100 4h19.172l-6.586 6.586c-.39.39-.586.902-.586 1.414s.195 1.024.586 1.414a2 2 0 002.828 0z"/></symbol><symbol id="icon-burger" viewBox="0 0 32 32"><path d="M1 7h30a1 1 0 000-2H1a1 1 0 000 2zm30 8H1a1 1 0 000 2h30a1 1 0 000-2zm0 10H1a1 1 0 000 2h30a1 1 0 000-2z"/></symbol><symbol id="icon-close" viewBox="0 0 32 32"><path d="M.371 2.165A1.268 1.268 0 012.164.372l13.835 13.835L29.834.372a1.27 1.27 0 011.794 1.793L17.792 16l13.835 13.835a1.268 1.268 0 11-1.794 1.793L15.998 17.793 2.163 31.628A1.268 1.268 0 01.37 29.835L14.205 16 .37 2.165z"/></symbol><symbol id="icon-vector-right" viewBox="0 0 32 32"><path d="M24.684 13.727a3.118 3.118 0 00-.523-.417L11.758.908a3.1 3.1 0 00-4.383 4.384l10.682 10.681L7.321 26.71a3.098 3.098 0 104.382 4.382l12.459-12.457a3.082 3.082 0 001.426-2.662 3.082 3.082 0 00-.903-2.245z"/></symbol><symbol id="icon-arrow-right2" viewBox="0 0 32 32"><path d="M19.414 27.414l10-10a2 2 0 000-2.828l-10-10a2 2 0 10-2.828 2.828L23.172 14H4a2 2 0 100 4h19.172l-6.586 6.586c-.39.39-.586.902-.586 1.414s.195 1.024.586 1.414a2 2 0 002.828 0z"/></symbol><symbol id="icon-arrow-left2" viewBox="0 0 32 32"><path d="M12.586 27.414l-10-10a2 2 0 010-2.828l10-10a2 2 0 112.828 2.828L8.828 14H28a2 2 0 110 4H8.828l6.586 6.586c.39.39.586.902.586 1.414s-.195 1.024-.586 1.414a2 2 0 01-2.828 0z"/></symbol><symbol id="icon-circle-up" viewBox="0 0 32 32"><path d="M0 16c0 8.837 7.163 16 16 16s16-7.163 16-16S24.837 0 16 0 0 7.163 0 16zm29 0c0 7.18-5.82 13-13 13S3 23.18 3 16 8.82 3 16 3s13 5.82 13 13z"/><path d="M22.086 20.914l2.829-2.829-8.914-8.914-8.914 8.914 2.828 2.828 6.086-6.086z"/></symbol><symbol id="icon-logo" viewBox="5 5 490 490"><path d="M190 491C75 456 6 365 6 250 6 156 54 74 133 33c41-21 47-6 9 23-27 22-32 32-32 69 0 26-6 47-15 55-18 15-20 54-2 68 7 6 14 26 15 44 5 66 76 128 147 128s142-62 147-128c1-18 8-38 15-44 18-14 16-53-2-68-9-8-15-29-15-55 0-37-5-47-32-69-42-33-30-45 17-16 66 41 115 130 115 209 0 158-164 286-310 242z"/><path d="M203 375c-18-8-33-18-33-24 0-11 54-31 85-31s85 20 85 31c0 12-62 39-87 39-10-1-33-7-50-15zM146 313c-3-4-6-17-6-30 0-23 1-23 115-23s115 0 115 23c0 34-9 38-41 22-36-19-112-19-148 0-16 8-31 11-35 8zM117 224c-16-17 11-24 89-24h84v-35c0-19 5-35 10-35 6 0 10 15 10 34 0 33 2 35 40 38 22 2 40 8 40 13 0 11-262 20-273 9z"/><path d="M140 136c0-55 19-66 115-66s115 11 115 66c0 24-5 34-15 34-9 0-15-9-15-24 0-56-76-61-87-6-5 29-8 30-59 30h-54v-34zM202 23c6-32 108-29 108 2 0 11-13 15-56 15-47 0-55-3-52-17z"/></symbol><symbol id="icon-accessibility" viewBox="0 0 32 32"><path d="M13 3a3 3 0 116 0 3 3 0 01-6 0z"/><path d="M20 10l10.3-4.443-.743-1.857L17 8h-2L2.443 3.7 1.7 5.557 12 10v8L7.898 31.268l1.87.709L15.572 19h.857l5.804 12.977 1.87-.709L20.001 18z"/></symbol><symbol id="icon-star-full" viewBox="0 0 32 32"><path d="M32 12.408l-11.056-1.607L16 .783l-4.944 10.018L0 12.408l8 7.798-1.889 11.011L16 26.018l9.889 5.199L24 20.206l8-7.798z"/></symbol><symbol id="icon-heart" viewBox="0 0 32 32"><path d="M23.6 2c-3.363 0-6.258 2.736-7.599 5.594C14.659 4.736 11.764 2 8.4 2 3.763 2 0 5.764 0 10.401c0 9.433 9.516 11.906 16.001 21.232C22.131 22.365 32 19.533 32 10.401 32 5.764 28.237 2 23.6 2z"/></symbol><symbol id="icon-happy" viewBox="0 0 32 32"><path d="M16 32c8.837 0 16-7.163 16-16S24.837 0 16 0 0 7.163 0 16s7.163 16 16 16zm0-29c7.18 0 13 5.82 13 13s-5.82 13-13 13S3 23.18 3 16 8.82 3 16 3zm0 15.711c3.623 0 7.07-.963 10-2.654-.455 5.576-4.785 9.942-10 9.942s-9.544-4.371-10-9.947a20.027 20.027 0 0010 2.658zM8 11c0-1.657.895-3 2-3s2 1.343 2 3-.895 3-2 3-2-1.343-2-3zm12 0c0-1.657.895-3 2-3s2 1.343 2 3-.895 3-2 3-2-1.343-2-3z"/></symbol><symbol id="icon-email" viewBox="0 0 32 32"><path d="M26.667 5.333H5.334A2.662 2.662 0 002.682 8l-.014 16c0 1.467 1.2 2.667 2.667 2.667h21.333c1.467 0 2.667-1.2 2.667-2.667V8c0-1.467-1.2-2.667-2.667-2.667zm-.534 5.668l-9.426 5.892a1.343 1.343 0 01-1.421-.004l.006.003L5.866 11A1.133 1.133 0 117.07 9.083l-.004-.003 8.933 5.586 8.933-5.588a1.132 1.132 0 111.204 1.916l-.005.003z"/></symbol><symbol id="icon-person" viewBox="0 0 32 32"><path d="M16 16a5.333 5.333 0 100-10.666A5.333 5.333 0 1016 16zm0 2.667c-3.561 0-10.667 1.787-10.667 5.333v1.333c0 .732.599 1.333 1.333 1.333h18.667c.732 0 1.333-.601 1.333-1.333V24c0-3.547-7.108-5.333-10.667-5.333z"/></symbol><symbol id="icon-phone" viewBox="0 0 32 32"><path d="M24.882 19.774l-3.268-.373a2.552 2.552 0 00-2.11.732l-2.368 2.368c-3.669-1.894-6.585-4.81-8.427-8.372l-.051-.108 2.382-2.377a2.552 2.552 0 00.731-2.122l.001.012-.373-3.243a2.578 2.578 0 00-2.557-2.276H6.613c-1.454 0-2.663 1.209-2.574 2.661.683 10.987 9.47 19.762 20.444 20.444 1.452.089 2.663-1.12 2.663-2.574v-2.238a2.549 2.549 0 00-2.253-2.532l-.012-.001z"/></symbol><symbol id="icon-arrow-left" viewBox="0 0 32 32"><path d="M12.586 27.414l-10-10a2 2 0 010-2.828l10-10a2 2 0 112.828 2.828L8.828 14H28a2 2 0 110 4H8.828l6.586 6.586c.39.39.586.902.586 1.414s-.195 1.024-.586 1.414a2 2 0 01-2.828 0z"/></symbol></defs></svg>